<svg xmlns="http://www.w3.org/2000/svg" xmlns:xlink="http://www.w3.org/1999/xlink" width="500" zoomAndPan="magnify" viewBox="0 0 375 374.999991" height="500" preserveAspectRatio="xMidYMid meet" version="1.0"><defs><g/><clipPath id="418526ae78"><path d="M 187.5 0 C 83.945312 0 0 83.945312 0 187.5 C 0 291.054688 83.945312 375 187.5 375 C 291.054688 375 375 291.054688 375 187.5 C 375 83.945312 291.054688 0 187.5 0 Z M 187.5 0 " clip-rule="nonzero"/></clipPath><linearGradient x1="-0" gradientTransform="matrix(1.464844, 0, 0, 1.464844, 0.0000045, -0)" y1="128" x2="255.999988" gradientUnits="userSpaceOnUse" y2="128" id="8eba8fb8ed"><stop stop-opacity="1" stop-color="rgb(80.39856%, 100%, 84.698486%)" offset="0"/><stop stop-opacity="1" stop-color="rgb(80.311584%, 99.891663%, 84.757996%)" offset="0.0078125"/><stop stop-opacity="1" stop-color="rgb(80.136108%, 99.676514%, 84.87854%)" offset="0.015625"/><stop stop-opacity="1" stop-color="rgb(79.960632%, 99.461365%, 84.997559%)" offset="0.0234375"/><stop stop-opacity="1" stop-color="rgb(79.786682%, 99.246216%, 85.116577%)" offset="0.03125"/><stop stop-opacity="1" stop-color="rgb(79.611206%, 99.032593%, 85.237122%)" offset="0.0390625"/><stop stop-opacity="1" stop-color="rgb(79.43573%, 98.817444%, 85.35614%)" offset="0.046875"/><stop stop-opacity="1" stop-color="rgb(79.26178%, 98.602295%, 85.476685%)" offset="0.0546875"/><stop stop-opacity="1" stop-color="rgb(79.086304%, 98.387146%, 85.595703%)" offset="0.0625"/><stop stop-opacity="1" stop-color="rgb(78.910828%, 98.171997%, 85.714722%)" offset="0.0703125"/><stop stop-opacity="1" stop-color="rgb(78.736877%, 97.958374%, 85.835266%)" offset="0.078125"/><stop stop-opacity="1" stop-color="rgb(78.561401%, 97.743225%, 85.954285%)" offset="0.0859375"/><stop stop-opacity="1" stop-color="rgb(78.385925%, 97.528076%, 86.073303%)" offset="0.09375"/><stop stop-opacity="1" stop-color="rgb(78.211975%, 97.312927%, 86.193848%)" offset="0.101562"/><stop stop-opacity="1" stop-color="rgb(78.036499%, 97.097778%, 86.312866%)" offset="0.109375"/><stop stop-opacity="1" stop-color="rgb(77.861023%, 96.884155%, 86.431885%)" offset="0.117188"/><stop stop-opacity="1" stop-color="rgb(77.685547%, 96.669006%, 86.552429%)" offset="0.125"/><stop stop-opacity="1" stop-color="rgb(77.511597%, 96.453857%, 86.671448%)" offset="0.132812"/><stop stop-opacity="1" stop-color="rgb(77.336121%, 96.238708%, 86.790466%)" offset="0.140625"/><stop stop-opacity="1" stop-color="rgb(77.160645%, 96.02356%, 86.911011%)" offset="0.148438"/><stop stop-opacity="1" stop-color="rgb(76.986694%, 95.809937%, 87.030029%)" offset="0.15625"/><stop stop-opacity="1" stop-color="rgb(76.811218%, 95.594788%, 87.149048%)" offset="0.164062"/><stop stop-opacity="1" stop-color="rgb(76.635742%, 95.379639%, 87.269592%)" offset="0.171875"/><stop stop-opacity="1" stop-color="rgb(76.461792%, 95.16449%, 87.388611%)" offset="0.179688"/><stop stop-opacity="1" stop-color="rgb(76.286316%, 94.949341%, 87.507629%)" offset="0.1875"/><stop stop-opacity="1" stop-color="rgb(76.11084%, 94.735718%, 87.628174%)" offset="0.195312"/><stop stop-opacity="1" stop-color="rgb(75.93689%, 94.520569%, 87.747192%)" offset="0.203125"/><stop stop-opacity="1" stop-color="rgb(75.761414%, 94.30542%, 87.866211%)" offset="0.210938"/><stop stop-opacity="1" stop-color="rgb(75.585938%, 94.090271%, 87.986755%)" offset="0.21875"/><stop stop-opacity="1" stop-color="rgb(75.410461%, 93.875122%, 88.105774%)" offset="0.226562"/><stop stop-opacity="1" stop-color="rgb(75.236511%, 93.661499%, 88.224792%)" offset="0.234375"/><stop stop-opacity="1" stop-color="rgb(75.061035%, 93.44635%, 88.345337%)" offset="0.242188"/><stop stop-opacity="1" stop-color="rgb(74.885559%, 93.231201%, 88.464355%)" offset="0.25"/><stop stop-opacity="1" stop-color="rgb(74.711609%, 93.016052%, 88.583374%)" offset="0.257812"/><stop stop-opacity="1" stop-color="rgb(74.536133%, 92.800903%, 88.703918%)" offset="0.265625"/><stop stop-opacity="1" stop-color="rgb(74.360657%, 92.58728%, 88.822937%)" offset="0.273438"/><stop stop-opacity="1" stop-color="rgb(74.186707%, 92.372131%, 88.941956%)" offset="0.28125"/><stop stop-opacity="1" stop-color="rgb(74.01123%, 92.156982%, 89.0625%)" offset="0.289062"/><stop stop-opacity="1" stop-color="rgb(73.835754%, 91.941833%, 89.181519%)" offset="0.296875"/><stop stop-opacity="1" stop-color="rgb(73.661804%, 91.726685%, 89.300537%)" offset="0.304688"/><stop stop-opacity="1" stop-color="rgb(73.486328%, 91.513062%, 89.421082%)" offset="0.3125"/><stop stop-opacity="1" stop-color="rgb(73.310852%, 91.297913%, 89.5401%)" offset="0.320312"/><stop stop-opacity="1" stop-color="rgb(73.136902%, 91.082764%, 89.659119%)" offset="0.328125"/><stop stop-opacity="1" stop-color="rgb(72.961426%, 90.867615%, 89.779663%)" offset="0.335938"/><stop stop-opacity="1" stop-color="rgb(72.78595%, 90.652466%, 89.898682%)" offset="0.34375"/><stop stop-opacity="1" stop-color="rgb(72.610474%, 90.438843%, 90.0177%)" offset="0.351562"/><stop stop-opacity="1" stop-color="rgb(72.436523%, 90.223694%, 90.138245%)" offset="0.359375"/><stop stop-opacity="1" stop-color="rgb(72.261047%, 90.008545%, 90.257263%)" offset="0.367188"/><stop stop-opacity="1" stop-color="rgb(72.085571%, 89.793396%, 90.376282%)" offset="0.375"/><stop stop-opacity="1" stop-color="rgb(71.911621%, 89.578247%, 90.496826%)" offset="0.382812"/><stop stop-opacity="1" stop-color="rgb(71.736145%, 89.364624%, 90.615845%)" offset="0.390625"/><stop stop-opacity="1" stop-color="rgb(71.560669%, 89.149475%, 90.734863%)" offset="0.398438"/><stop stop-opacity="1" stop-color="rgb(71.386719%, 88.934326%, 90.855408%)" offset="0.40625"/><stop stop-opacity="1" stop-color="rgb(71.211243%, 88.719177%, 90.974426%)" offset="0.414062"/><stop stop-opacity="1" stop-color="rgb(71.035767%, 88.504028%, 91.093445%)" offset="0.421875"/><stop stop-opacity="1" stop-color="rgb(70.861816%, 88.290405%, 91.213989%)" offset="0.429688"/><stop stop-opacity="1" stop-color="rgb(70.68634%, 88.075256%, 91.333008%)" offset="0.4375"/><stop stop-opacity="1" stop-color="rgb(70.510864%, 87.860107%, 91.452026%)" offset="0.445312"/><stop stop-opacity="1" stop-color="rgb(70.336914%, 87.644958%, 91.572571%)" offset="0.453125"/><stop stop-opacity="1" stop-color="rgb(70.161438%, 87.42981%, 91.691589%)" offset="0.460937"/><stop stop-opacity="1" stop-color="rgb(69.985962%, 87.216187%, 91.810608%)" offset="0.46875"/><stop stop-opacity="1" stop-color="rgb(69.810486%, 87.001038%, 91.931152%)" offset="0.476562"/><stop stop-opacity="1" stop-color="rgb(69.636536%, 86.785889%, 92.050171%)" offset="0.484375"/><stop stop-opacity="1" stop-color="rgb(69.46106%, 86.57074%, 92.169189%)" offset="0.492188"/><stop stop-opacity="1" stop-color="rgb(69.285583%, 86.355591%, 92.289734%)" offset="0.5"/><stop stop-opacity="1" stop-color="rgb(69.111633%, 86.141968%, 92.408752%)" offset="0.507812"/><stop stop-opacity="1" stop-color="rgb(68.936157%, 85.926819%, 92.527771%)" offset="0.515625"/><stop stop-opacity="1" stop-color="rgb(68.760681%, 85.71167%, 92.648315%)" offset="0.523438"/><stop stop-opacity="1" stop-color="rgb(68.586731%, 85.496521%, 92.767334%)" offset="0.53125"/><stop stop-opacity="1" stop-color="rgb(68.411255%, 85.281372%, 92.886353%)" offset="0.539062"/><stop stop-opacity="1" stop-color="rgb(68.235779%, 85.067749%, 93.006897%)" offset="0.546875"/><stop stop-opacity="1" stop-color="rgb(68.061829%, 84.8526%, 93.125916%)" offset="0.554688"/><stop stop-opacity="1" stop-color="rgb(67.886353%, 84.637451%, 93.244934%)" offset="0.5625"/><stop stop-opacity="1" stop-color="rgb(67.710876%, 84.422302%, 93.365479%)" offset="0.570313"/><stop stop-opacity="1" stop-color="rgb(67.536926%, 84.207153%, 93.484497%)" offset="0.578125"/><stop stop-opacity="1" stop-color="rgb(67.36145%, 83.99353%, 93.603516%)" offset="0.585938"/><stop stop-opacity="1" stop-color="rgb(67.185974%, 83.778381%, 93.72406%)" offset="0.59375"/><stop stop-opacity="1" stop-color="rgb(67.010498%, 83.563232%, 93.843079%)" offset="0.601562"/><stop stop-opacity="1" stop-color="rgb(66.836548%, 83.348083%, 93.962097%)" offset="0.609375"/><stop stop-opacity="1" stop-color="rgb(66.661072%, 83.132935%, 94.082642%)" offset="0.617188"/><stop stop-opacity="1" stop-color="rgb(66.485596%, 82.919312%, 94.20166%)" offset="0.625"/><stop stop-opacity="1" stop-color="rgb(66.311646%, 82.704163%, 94.320679%)" offset="0.632812"/><stop stop-opacity="1" stop-color="rgb(66.136169%, 82.489014%, 94.441223%)" offset="0.640625"/><stop stop-opacity="1" stop-color="rgb(65.960693%, 82.273865%, 94.560242%)" offset="0.648438"/><stop stop-opacity="1" stop-color="rgb(65.786743%, 82.058716%, 94.67926%)" offset="0.65625"/><stop stop-opacity="1" stop-color="rgb(65.611267%, 81.845093%, 94.799805%)" offset="0.664062"/><stop stop-opacity="1" stop-color="rgb(65.435791%, 81.629944%, 94.918823%)" offset="0.671875"/><stop stop-opacity="1" stop-color="rgb(65.261841%, 81.414795%, 95.037842%)" offset="0.679688"/><stop stop-opacity="1" stop-color="rgb(65.086365%, 81.199646%, 95.158386%)" offset="0.6875"/><stop stop-opacity="1" stop-color="rgb(64.910889%, 80.984497%, 95.277405%)" offset="0.695312"/><stop stop-opacity="1" stop-color="rgb(64.736938%, 80.770874%, 95.396423%)" offset="0.703125"/><stop stop-opacity="1" stop-color="rgb(64.561462%, 80.555725%, 95.516968%)" offset="0.710938"/><stop stop-opacity="1" stop-color="rgb(64.385986%, 80.340576%, 95.635986%)" offset="0.71875"/><stop stop-opacity="1" stop-color="rgb(64.21051%, 80.125427%, 95.755005%)" offset="0.726562"/><stop stop-opacity="1" stop-color="rgb(64.03656%, 79.910278%, 95.875549%)" offset="0.734375"/><stop stop-opacity="1" stop-color="rgb(63.861084%, 79.696655%, 95.994568%)" offset="0.742188"/><stop stop-opacity="1" stop-color="rgb(63.685608%, 79.481506%, 96.113586%)" offset="0.75"/><stop stop-opacity="1" stop-color="rgb(63.511658%, 79.266357%, 96.234131%)" offset="0.757812"/><stop stop-opacity="1" stop-color="rgb(63.336182%, 79.051208%, 96.353149%)" offset="0.765625"/><stop stop-opacity="1" stop-color="rgb(63.160706%, 78.83606%, 96.472168%)" offset="0.773438"/><stop stop-opacity="1" stop-color="rgb(62.986755%, 78.622437%, 96.592712%)" offset="0.78125"/><stop stop-opacity="1" stop-color="rgb(62.811279%, 78.407288%, 96.711731%)" offset="0.789062"/><stop stop-opacity="1" stop-color="rgb(62.635803%, 78.192139%, 96.83075%)" offset="0.796875"/><stop stop-opacity="1" stop-color="rgb(62.461853%, 77.97699%, 96.951294%)" offset="0.804687"/><stop stop-opacity="1" stop-color="rgb(62.286377%, 77.761841%, 97.070312%)" offset="0.8125"/><stop stop-opacity="1" stop-color="rgb(62.110901%, 77.548218%, 97.189331%)" offset="0.820312"/><stop stop-opacity="1" stop-color="rgb(61.936951%, 77.333069%, 97.309875%)" offset="0.828125"/><stop stop-opacity="1" stop-color="rgb(61.761475%, 77.11792%, 97.428894%)" offset="0.835938"/><stop stop-opacity="1" stop-color="rgb(61.585999%, 76.902771%, 97.547913%)" offset="0.84375"/><stop stop-opacity="1" stop-color="rgb(61.410522%, 76.687622%, 97.668457%)" offset="0.851562"/><stop stop-opacity="1" stop-color="rgb(61.236572%, 76.473999%, 97.787476%)" offset="0.859375"/><stop stop-opacity="1" stop-color="rgb(61.061096%, 76.25885%, 97.906494%)" offset="0.867188"/><stop stop-opacity="1" stop-color="rgb(60.88562%, 76.043701%, 98.027039%)" offset="0.875"/><stop stop-opacity="1" stop-color="rgb(60.71167%, 75.828552%, 98.146057%)" offset="0.882812"/><stop stop-opacity="1" stop-color="rgb(60.536194%, 75.613403%, 98.265076%)" offset="0.890625"/><stop stop-opacity="1" stop-color="rgb(60.360718%, 75.39978%, 98.38562%)" offset="0.898437"/><stop stop-opacity="1" stop-color="rgb(60.186768%, 75.184631%, 98.504639%)" offset="0.90625"/><stop stop-opacity="1" stop-color="rgb(60.011292%, 74.969482%, 98.623657%)" offset="0.914062"/><stop stop-opacity="1" stop-color="rgb(59.835815%, 74.754333%, 98.744202%)" offset="0.921875"/><stop stop-opacity="1" stop-color="rgb(59.661865%, 74.539185%, 98.86322%)" offset="0.929688"/><stop stop-opacity="1" stop-color="rgb(59.486389%, 74.325562%, 98.982239%)" offset="0.9375"/><stop stop-opacity="1" stop-color="rgb(59.310913%, 74.110413%, 99.102783%)" offset="0.945312"/><stop stop-opacity="1" stop-color="rgb(59.136963%, 73.895264%, 99.221802%)" offset="0.953125"/><stop stop-opacity="1" stop-color="rgb(58.961487%, 73.680115%, 99.34082%)" offset="0.960938"/><stop stop-opacity="1" stop-color="rgb(58.786011%, 73.464966%, 99.461365%)" offset="0.96875"/><stop stop-opacity="1" stop-color="rgb(58.610535%, 73.251343%, 99.580383%)" offset="0.976562"/><stop stop-opacity="1" stop-color="rgb(58.436584%, 73.036194%, 99.699402%)" offset="0.984375"/><stop stop-opacity="1" stop-color="rgb(58.261108%, 72.821045%, 99.819946%)" offset="0.992188"/><stop stop-opacity="1" stop-color="rgb(58.085632%, 72.605896%, 99.938965%)" offset="1"/></linearGradient></defs><rect x="-37.5" width="450" fill="#ffffff" y="-37.499999" height="449.999989" fill-opacity="1"/><rect x="-37.5" width="450" fill="#ffffff" y="-37.499999" height="449.999989" fill-opacity="1"/><g clip-path="url(#418526ae78)"><rect x="-37.5" fill="url(#8eba8fb8ed)" width="450" y="-37.499999" height="449.999989"/></g><g fill="#000000" fill-opacity="1"><g transform="translate(102.138281, 310.279343)"><g><path d="M 109.8125 3.515625 C 90.6875 3.515625 73.800781 -0.925781 59.15625 -9.8125 C 44.507812 -18.695312 33.132812 -31.675781 25.03125 -48.75 C 16.9375 -65.832031 12.890625 -86.675781 12.890625 -111.28125 C 12.890625 -147.976562 21.671875 -176.285156 39.234375 -196.203125 C 56.804688 -216.117188 81.210938 -226.078125 112.453125 -226.078125 C 132.554688 -226.078125 148.851562 -222.753906 161.34375 -216.109375 C 173.84375 -209.472656 183.460938 -200.25 190.203125 -188.4375 C 196.941406 -176.632812 201.476562 -162.921875 203.8125 -147.296875 L 184.203125 -144.375 C 181.460938 -157.457031 177.359375 -168.925781 171.890625 -178.78125 C 166.429688 -188.632812 158.914062 -196.34375 149.34375 -201.90625 C 139.78125 -207.476562 127.285156 -210.265625 111.859375 -210.265625 C 102.492188 -210.265625 93.171875 -209.09375 83.890625 -206.75 C 74.617188 -204.40625 66.566406 -200.695312 59.734375 -195.625 C 51.335938 -187.226562 44.695312 -176.144531 39.8125 -162.375 C 34.9375 -148.613281 32.5 -131.972656 32.5 -112.453125 C 32.5 -91.171875 35.914062 -73.015625 42.75 -57.984375 C 49.582031 -42.953125 59.097656 -31.484375 71.296875 -23.578125 C 83.503906 -15.671875 97.515625 -11.71875 113.328125 -11.71875 C 126.210938 -11.71875 137.878906 -14.007812 148.328125 -18.59375 C 158.773438 -23.1875 167.316406 -29.582031 173.953125 -37.78125 C 180.585938 -45.976562 184.394531 -55.640625 185.375 -66.765625 C 185.375 -73.015625 184.539062 -78.1875 182.875 -82.28125 C 181.21875 -86.382812 179.414062 -88.4375 177.46875 -88.4375 L 122.703125 -88.4375 L 122.703125 -98.984375 L 203.234375 -98.984375 C 203.035156 -82.773438 203.179688 -66.859375 203.671875 -51.234375 C 204.160156 -35.617188 204.503906 -18.539062 204.703125 0 L 187.125 0 L 187.125 -48.03125 L 185.953125 -48.03125 C 184.191406 -39.238281 179.941406 -30.890625 173.203125 -22.984375 C 166.472656 -15.078125 157.738281 -8.679688 147 -3.796875 C 136.269531 1.078125 123.875 3.515625 109.8125 3.515625 Z M 109.8125 3.515625 "/></g></g></g><g fill="#ffffff" fill-opacity="1"><g transform="translate(19.292546, 236.903789)"><g><path d="M 246.296875 -185.625 C 246.296875 -192 243.382812 -198.015625 237.5625 -203.671875 C 229.175781 -211.679688 217.601562 -215.6875 202.84375 -215.6875 C 189.894531 -215.6875 175.585938 -212.863281 159.921875 -207.21875 C 151.710938 -204.300781 144.601562 -200.289062 138.59375 -195.1875 C 129.300781 -187.164062 124.65625 -179.144531 124.65625 -171.125 C 124.65625 -160.375 131.488281 -150.71875 145.15625 -142.15625 C 150.257812 -139.050781 160.507812 -133.988281 175.90625 -126.96875 C 191.3125 -119.957031 202.566406 -114.265625 209.671875 -109.890625 C 220.421875 -103.335938 227.847656 -96.320312 231.953125 -88.84375 C 236.054688 -81.375 238.109375 -74.453125 238.109375 -68.078125 C 238.109375 -58.960938 235.097656 -49.664062 229.078125 -40.1875 C 218.503906 -23.238281 203.015625 -8.660156 182.609375 3.546875 C 159.097656 17.765625 130.757812 24.875 97.59375 24.875 C 65.695312 24.875 40.363281 16.765625 21.59375 0.546875 C 7.007812 -11.847656 -0.28125 -27.796875 -0.28125 -47.296875 C -0.28125 -59.691406 4.226562 -73.359375 13.25 -88.296875 C 22.269531 -103.242188 33.34375 -113.816406 46.46875 -120.015625 C 49.195312 -121.109375 51.242188 -121.472656 52.609375 -121.109375 C 53.984375 -120.742188 52.847656 -119.007812 49.203125 -115.90625 C 41.359375 -109.707031 35.070312 -102.875 30.34375 -95.40625 C 20.132812 -79.363281 15.03125 -61.957031 15.03125 -43.1875 C 15.03125 -30.800781 18.492188 -19.957031 25.421875 -10.65625 C 37.804688 5.925781 59.3125 15.3125 89.9375 17.5 C 93.394531 17.863281 98.539062 18.046875 105.375 18.046875 C 112.207031 18.046875 121.5 16.8125 133.25 14.34375 C 145.007812 11.882812 156.359375 7.832031 167.296875 2.1875 C 190.804688 -10.207031 206.023438 -26.242188 212.953125 -45.921875 C 215.140625 -51.753906 216.234375 -57.40625 216.234375 -62.875 C 216.234375 -75.269531 210.675781 -86.207031 199.5625 -95.6875 C 193.539062 -100.414062 181.28125 -106.742188 162.78125 -114.671875 C 144.289062 -122.609375 131.851562 -128.671875 125.46875 -132.859375 C 111.4375 -142.335938 104.421875 -153.546875 104.421875 -166.484375 C 104.421875 -177.785156 110.707031 -188.8125 123.28125 -199.5625 C 141.320312 -214.875 166.835938 -222.53125 199.828125 -222.53125 C 215.316406 -222.53125 227.9375 -220.203125 237.6875 -215.546875 C 247.4375 -210.898438 253.40625 -203.929688 255.59375 -194.640625 C 255.957031 -192.816406 256.140625 -190.992188 256.140625 -189.171875 C 256.140625 -182.066406 252.859375 -175.691406 246.296875 -170.046875 C 241.742188 -166.398438 235.640625 -163.484375 227.984375 -161.296875 C 224.703125 -160.378906 222.878906 -160.742188 222.515625 -162.390625 C 222.148438 -164.753906 224.429688 -166.210938 229.359375 -166.765625 C 238.097656 -167.859375 243.472656 -172.226562 245.484375 -179.875 C 246.023438 -181.882812 246.296875 -183.800781 246.296875 -185.625 Z M 246.296875 -185.625 "/></g></g></g><g fill="#cb6ce6" fill-opacity="1"><g transform="translate(14.712638, 236.903789)"><g><path d="M 246.296875 -185.625 C 246.296875 -192 243.382812 -198.015625 237.5625 -203.671875 C 229.175781 -211.679688 217.601562 -215.6875 202.84375 -215.6875 C 189.894531 -215.6875 175.585938 -212.863281 159.921875 -207.21875 C 151.710938 -204.300781 144.601562 -200.289062 138.59375 -195.1875 C 129.300781 -187.164062 124.65625 -179.144531 124.65625 -171.125 C 124.65625 -160.375 131.488281 -150.71875 145.15625 -142.15625 C 150.257812 -139.050781 160.507812 -133.988281 175.90625 -126.96875 C 191.3125 -119.957031 202.566406 -114.265625 209.671875 -109.890625 C 220.421875 -103.335938 227.847656 -96.320312 231.953125 -88.84375 C 236.054688 -81.375 238.109375 -74.453125 238.109375 -68.078125 C 238.109375 -58.960938 235.097656 -49.664062 229.078125 -40.1875 C 218.503906 -23.238281 203.015625 -8.660156 182.609375 3.546875 C 159.097656 17.765625 130.757812 24.875 97.59375 24.875 C 65.695312 24.875 40.363281 16.765625 21.59375 0.546875 C 7.007812 -11.847656 -0.28125 -27.796875 -0.28125 -47.296875 C -0.28125 -59.691406 4.226562 -73.359375 13.25 -88.296875 C 22.269531 -103.242188 33.34375 -113.816406 46.46875 -120.015625 C 49.195312 -121.109375 51.242188 -121.472656 52.609375 -121.109375 C 53.984375 -120.742188 52.847656 -119.007812 49.203125 -115.90625 C 41.359375 -109.707031 35.070312 -102.875 30.34375 -95.40625 C 20.132812 -79.363281 15.03125 -61.957031 15.03125 -43.1875 C 15.03125 -30.800781 18.492188 -19.957031 25.421875 -10.65625 C 37.804688 5.925781 59.3125 15.3125 89.9375 17.5 C 93.394531 17.863281 98.539062 18.046875 105.375 18.046875 C 112.207031 18.046875 121.5 16.8125 133.25 14.34375 C 145.007812 11.882812 156.359375 7.832031 167.296875 2.1875 C 190.804688 -10.207031 206.023438 -26.242188 212.953125 -45.921875 C 215.140625 -51.753906 216.234375 -57.40625 216.234375 -62.875 C 216.234375 -75.269531 210.675781 -86.207031 199.5625 -95.6875 C 193.539062 -100.414062 181.28125 -106.742188 162.78125 -114.671875 C 144.289062 -122.609375 131.851562 -128.671875 125.46875 -132.859375 C 111.4375 -142.335938 104.421875 -153.546875 104.421875 -166.484375 C 104.421875 -177.785156 110.707031 -188.8125 123.28125 -199.5625 C 141.320312 -214.875 166.835938 -222.53125 199.828125 -222.53125 C 215.316406 -222.53125 227.9375 -220.203125 237.6875 -215.546875 C 247.4375 -210.898438 253.40625 -203.929688 255.59375 -194.640625 C 255.957031 -192.816406 256.140625 -190.992188 256.140625 -189.171875 C 256.140625 -182.066406 252.859375 -175.691406 246.296875 -170.046875 C 241.742188 -166.398438 235.640625 -163.484375 227.984375 -161.296875 C 224.703125 -160.378906 222.878906 -160.742188 222.515625 -162.390625 C 222.148438 -164.753906 224.429688 -166.210938 229.359375 -166.765625 C 238.097656 -167.859375 243.472656 -172.226562 245.484375 -179.875 C 246.023438 -181.882812 246.296875 -183.800781 246.296875 -185.625 Z M 246.296875 -185.625 "/></g></g></g></svg>