<svg xmlns="http://www.w3.org/2000/svg" xmlns:xlink="http://www.w3.org/1999/xlink" width="1920" zoomAndPan="magnify" viewBox="0 0 1440 809.999993" height="1080" preserveAspectRatio="xMidYMid meet" version="1.0"><path fill="#545454" d="M 636.617188 119.46875 C 618.992188 125.636719 610.394531 138.574219 611.480469 157.296875 C 611.925781 165.027344 612.792969 168.304688 616.144531 174.960938 C 620.933594 184.476562 635.457031 199.882812 646.839844 207.523438 C 658.773438 215.539062 681.785156 226.523438 702.164062 233.9375 C 708.078125 236.085938 706.285156 236.132812 603.097656 236.433594 L 498.011719 236.742188 L 498.011719 335.492188 L 726.855469 335.492188 L 727.15625 375.542969 C 727.320312 397.566406 727.308594 419.855469 727.125 425.070312 C 726.847656 432.988281 727.144531 434.816406 728.933594 436.171875 C 731.511719 438.128906 735.804688 438.324219 738.976562 436.625 C 741.222656 435.421875 741.308594 433.578125 741.308594 385.433594 L 741.308594 335.492188 L 970.152344 335.492188 L 970.152344 236.730469 L 864.460938 236.652344 C 790.21875 236.597656 759.667969 236.203125 761.78125 235.324219 C 763.4375 234.636719 769.402344 232.492188 775.03125 230.558594 C 791.855469 224.78125 817.984375 211.109375 828.894531 202.382812 C 840.628906 192.996094 847.050781 185.203125 853.035156 173.09375 C 857.074219 164.921875 857.503906 163.109375 857.507812 154.320312 C 857.515625 142.832031 854.933594 136.042969 847.859375 128.972656 C 834.652344 115.761719 810.742188 115.441406 791.273438 128.214844 C 770.078125 142.117188 754.042969 165.3125 736.882812 206.894531 L 734.535156 212.589844 L 730.511719 202.679688 C 724.542969 187.964844 713.324219 165.765625 707.382812 156.90625 C 693.304688 135.925781 674.976562 122.230469 656.351562 118.789062 C 647.105469 117.078125 643.042969 117.21875 636.617188 119.46875 M 643.144531 131.988281 C 631.257812 133.726562 625.238281 141.292969 625.324219 154.386719 C 625.398438 164.933594 629.625 173.476562 639.828125 183.675781 C 656.507812 200.355469 687.242188 216.324219 715.015625 222.738281 L 722.285156 224.417969 L 721.527344 220.644531 C 720.308594 214.542969 712.796875 195.316406 707.453125 184.613281 C 696.214844 162.109375 679.910156 142.886719 666.128906 135.902344 C 659.398438 132.492188 650.304688 130.941406 643.144531 131.988281 M 814.777344 132.140625 C 796.417969 135.457031 778.738281 152.78125 762.984375 182.898438 C 756.089844 196.082031 746.125 219.371094 746.125 222.308594 C 746.125 224.492188 753.625 223.003906 770.8125 217.410156 C 804.941406 206.308594 829.996094 189.183594 839.476562 170.472656 C 843.9375 161.667969 844.933594 147.722656 841.539062 141.609375 C 837.296875 133.96875 826.261719 130.066406 814.777344 132.140625 M 512.464844 286.109375 L 512.464844 322.246094 L 726.855469 322.246094 L 726.855469 249.976562 L 512.464844 249.976562 Z M 741.308594 286.109375 L 741.308594 322.246094 L 955.699219 322.246094 L 955.699219 249.976562 L 741.308594 249.976562 Z M 396.234375 490.925781 C 388.71875 492.070312 387.757812 492.265625 381.78125 493.867188 C 371.328125 496.664062 354.277344 507.773438 347.253906 516.359375 C 335.945312 530.1875 331.304688 543.445312 331.304688 561.929688 C 331.304688 583.644531 337.925781 599.363281 353.179688 613.851562 C 368.183594 628.105469 383.960938 634.09375 409.097656 635.082031 C 425.929688 635.742188 434.253906 634.421875 451.640625 628.34375 L 461.273438 624.976562 L 461.890625 599.777344 C 462.53125 573.488281 462.980469 571.191406 468.378906 566.40625 C 470.894531 564.179688 470.878906 564.167969 466.09375 564.839844 C 463.441406 565.210938 455.582031 565.554688 448.628906 565.601562 C 438.300781 565.667969 436.414062 565.945312 438.34375 567.117188 C 439.644531 567.90625 442.214844 570.003906 444.0625 571.773438 L 447.421875 574.992188 L 447.40625 595.257812 C 447.386719 614.753906 446.667969 619.699219 444.082031 618.101562 C 443.417969 617.691406 442.953125 618.269531 443.042969 619.378906 C 443.496094 624.898438 424.464844 630.21875 408.917969 628.921875 C 390.515625 627.390625 377.945312 621.390625 365.695312 608.296875 C 352.960938 594.683594 347.519531 580.160156 347.476562 559.691406 C 347.414062 530.023438 364.277344 506.464844 391.328125 498.433594 C 403.789062 494.730469 425.734375 496.320312 438.738281 501.867188 C 444.078125 504.144531 455.242188 514.746094 456.511719 518.742188 C 458.152344 523.910156 458.917969 519.25 458.050781 509.367188 C 456.921875 496.480469 456.640625 495.6875 453.183594 495.667969 C 451.671875 495.660156 445.378906 494.609375 439.195312 493.332031 C 425.574219 490.523438 406.050781 489.429688 396.234375 490.925781 M 1087.585938 491.597656 C 1062.355469 496.804688 1040.917969 516.371094 1033.332031 541.117188 C 1030.535156 550.242188 1029.941406 565.984375 1031.96875 577.167969 C 1034.453125 590.84375 1039.59375 600.910156 1049.519531 611.496094 C 1064.339844 627.3125 1079.632812 634.089844 1102.746094 635.082031 C 1119.113281 635.785156 1130.414062 633.726562 1141.785156 627.964844 C 1167.292969 615.042969 1180.988281 594.347656 1182.84375 565.90625 C 1185.300781 528.28125 1163.207031 499.164062 1126.425781 491.570312 C 1115.183594 489.246094 1098.921875 489.257812 1087.585938 491.597656 M 114.191406 492.023438 C 112.089844 492.523438 108.023438 494.140625 105.15625 495.621094 C 93.589844 501.585938 88.484375 510.011719 88.527344 523.070312 C 88.582031 540.8125 96.785156 549.5 130.734375 567.78125 C 155.046875 580.871094 161.804688 589.105469 160.453125 603.996094 C 159.496094 614.53125 151.476562 625.609375 147.59375 621.757812 C 146.503906 620.675781 146.335938 620.78125 146.878906 622.210938 C 148.710938 627.027344 130.261719 630.796875 117 628.324219 C 108.519531 626.742188 96.160156 620.664062 96.730469 618.359375 C 96.949219 617.464844 96.71875 617.144531 96.210938 617.652344 C 94.867188 618.996094 88.582031 612.578125 86.578125 607.8125 C 85.628906 605.558594 84.546875 604.023438 84.171875 604.398438 C 83.023438 605.542969 86.449219 628.394531 87.820312 628.765625 C 110.492188 634.855469 127.382812 636.464844 140.144531 633.746094 C 163.230469 628.828125 175.570312 615.839844 175.417969 596.632812 C 175.28125 579.660156 167.734375 570.53125 142.257812 556.507812 C 116.496094 542.332031 108.964844 536.917969 105.429688 530.039062 C 98.828125 517.1875 104.425781 502.445312 117.511719 498.222656 C 123.117188 496.417969 137.265625 496.304688 143.628906 498.019531 C 150.824219 499.957031 158.441406 506.253906 162.347656 513.492188 C 164.210938 516.949219 166.277344 519.773438 166.933594 519.773438 C 167.59375 519.773438 167.859375 519.328125 167.527344 518.789062 C 167.191406 518.246094 166.820312 512.667969 166.703125 506.390625 L 166.492188 494.980469 L 162.125 494.800781 C 159.722656 494.699219 154.523438 493.773438 150.578125 492.742188 C 143.042969 490.773438 121.246094 490.339844 114.191406 492.023438 M 236.042969 493.457031 C 233.394531 493.992188 226.210938 494.105469 220.085938 493.710938 C 212.640625 493.226562 208.945312 493.410156 208.945312 494.253906 C 208.945312 494.953125 210.011719 495.863281 211.320312 496.277344 C 212.628906 496.691406 214.796875 498.425781 216.140625 500.132812 C 218.515625 503.152344 218.578125 504.757812 218.511719 561.1875 C 218.441406 622.589844 218.117188 626.453125 212.859375 628.757812 C 211.367188 629.414062 210.148438 630.363281 210.148438 630.867188 C 210.148438 631.371094 217.503906 631.785156 226.492188 631.785156 L 242.839844 631.785156 L 238.539062 627.730469 L 234.238281 623.671875 L 234.238281 502.671875 L 238.511719 498.394531 C 243.46875 493.4375 242.796875 492.089844 236.042969 493.457031 M 1227.300781 493.277344 L 1208.03125 493.878906 L 1214.65625 497.011719 C 1218.886719 499.015625 1223.039062 502.273438 1226.164062 506.046875 C 1237.210938 519.386719 1261.304688 549.570312 1264.042969 553.496094 C 1265.65625 555.816406 1268.179688 559.023438 1269.644531 560.625 L 1272.308594 563.539062 L 1268.679688 567.851562 C 1266.683594 570.226562 1261.726562 576.230469 1257.667969 581.199219 C 1234.675781 609.324219 1221.152344 623.359375 1212.003906 628.582031 C 1209.496094 630.011719 1207.441406 631.554688 1207.4375 632.011719 C 1207.433594 632.464844 1214.742188 632.734375 1223.679688 632.613281 C 1232.617188 632.488281 1239.917969 632.117188 1239.90625 631.785156 C 1239.890625 631.457031 1238.265625 629.601562 1236.296875 627.667969 C 1232.8125 624.25 1232.769531 624.0625 1234.722656 621.042969 C 1239.4375 613.765625 1274.195312 571.386719 1276.007812 570.710938 C 1276.378906 570.570312 1282.644531 577.804688 1289.933594 586.785156 C 1321.21875 625.339844 1319.941406 623.25 1315.269531 628.128906 C 1313.589844 629.882812 1312.214844 631.558594 1312.21875 631.851562 C 1312.222656 632.707031 1343.597656 633.117188 1349.273438 632.339844 C 1352.222656 631.933594 1354.101562 631.121094 1353.679688 630.4375 C 1353.273438 629.78125 1352.042969 629.425781 1350.945312 629.644531 C 1349.847656 629.867188 1348.210938 629.492188 1347.3125 628.808594 C 1341.105469 624.121094 1330.332031 613.070312 1323.957031 604.863281 C 1319.816406 599.535156 1314.398438 592.917969 1311.914062 590.160156 C 1309.429688 587.402344 1307.398438 584.558594 1307.398438 583.835938 C 1307.398438 583.113281 1306.691406 582.089844 1305.824219 581.5625 C 1304.960938 581.03125 1302.65625 578.429688 1300.707031 575.78125 C 1298.753906 573.128906 1294.855469 568.097656 1292.039062 564.59375 C 1289.222656 561.089844 1286.921875 557.605469 1286.921875 556.855469 C 1286.921875 554.203125 1325.300781 511.449219 1334.125 504.273438 C 1337.34375 501.652344 1342.402344 498.515625 1345.363281 497.296875 C 1348.324219 496.078125 1350.75 494.6875 1350.75 494.203125 C 1350.757812 492.734375 1344.964844 491.761719 1340.8125 492.53125 C 1338.664062 492.929688 1332.082031 493.316406 1326.1875 493.394531 L 1315.472656 493.539062 L 1319.261719 497.082031 C 1321.347656 499.03125 1323.054688 501.101562 1323.054688 501.6875 C 1323.054688 503.304688 1296.507812 535.542969 1287.105469 545.34375 L 1281.636719 551.042969 L 1278.207031 547.152344 C 1274.625 543.085938 1268.03125 534.609375 1252.695312 514.351562 C 1244.492188 503.519531 1241.769531 498.09375 1244.535156 498.09375 C 1245.070312 498.09375 1246.472656 497.386719 1247.65625 496.523438 C 1251.882812 493.433594 1247.042969 492.660156 1227.300781 493.277344 M 511.796875 496.476562 C 514.132812 498.066406 516.359375 500.601562 516.738281 502.113281 C 517.117188 503.625 517.257812 531.882812 517.054688 564.914062 C 516.769531 610.261719 516.324219 625.082031 515.234375 625.445312 C 514.4375 625.707031 512.28125 627.109375 510.4375 628.554688 L 507.085938 631.183594 L 522.722656 631.789062 C 537.832031 632.375 542.839844 631.632812 538.960938 629.386719 C 531.769531 625.21875 532.335938 630.886719 532.335938 563.144531 L 532.335938 501.535156 L 536.261719 498.308594 C 538.421875 496.535156 540.183594 494.726562 540.175781 494.285156 C 540.171875 493.847656 532.824219 493.511719 523.855469 493.539062 L 507.542969 493.585938 Z M 585.398438 494.210938 C 585.007812 494.601562 586.289062 495.59375 588.242188 496.414062 C 590.820312 497.5 592.144531 499.171875 593.070312 502.515625 C 593.894531 505.476562 594.355469 527.898438 594.359375 565.140625 L 594.367188 623.15625 L 589.246094 627.445312 L 584.128906 631.738281 L 600.6875 631.761719 C 611.886719 631.78125 617.25 631.359375 617.25 630.46875 C 617.25 629.746094 616.273438 628.898438 615.082031 628.585938 C 609.996094 627.253906 609.546875 624.335938 609.046875 589.238281 L 608.566406 555.726562 L 626.359375 556.117188 C 639.234375 556.402344 644.292969 556.925781 644.652344 558.015625 C 644.929688 558.84375 645.707031 559.519531 646.382812 559.519531 C 647.0625 559.519531 648.683594 560.875 649.984375 562.53125 C 651.289062 564.1875 653.160156 565.542969 654.140625 565.542969 C 655.621094 565.542969 655.878906 563.546875 655.625 554.023438 C 655.453125 547.691406 654.777344 542.171875 654.121094 541.765625 C 653.460938 541.359375 652.699219 541.695312 652.429688 542.511719 C 652.15625 543.328125 650.800781 545.050781 649.417969 546.339844 C 647.148438 548.453125 645.058594 548.679688 627.863281 548.679688 L 608.820312 548.679688 L 608.820312 527.753906 C 608.820312 516.242188 609.148438 505.167969 609.554688 503.140625 L 610.292969 499.457031 L 626.71875 499.40625 C 635.753906 499.378906 646.375 499.8125 650.324219 500.363281 C 656.578125 501.242188 658.019531 501.96875 661.503906 506 C 663.703125 508.546875 665.824219 511.894531 666.210938 513.445312 C 668.042969 520.746094 671.152344 512.085938 671.359375 499.105469 L 671.449219 493.488281 L 628.78125 493.496094 C 605.3125 493.5 585.789062 493.820312 585.398438 494.210938 M 697.507812 494.21875 C 696.695312 495.527344 696.128906 515.945312 696.882812 516.699219 C 697.21875 517.035156 699.355469 514.480469 701.636719 511.015625 C 707.425781 502.207031 710.871094 500.875 729.914062 500.09375 C 738.550781 499.734375 746.203125 499.820312 746.910156 500.273438 C 748.394531 501.226562 749.007812 610.699219 747.582031 619.71875 C 746.902344 624.019531 745.945312 625.609375 742.859375 627.546875 C 740.730469 628.886719 738.972656 630.386719 738.945312 630.882812 C 738.917969 631.378906 746.214844 631.785156 755.160156 631.785156 C 765.527344 631.785156 771.417969 631.335938 771.417969 630.542969 C 771.417969 629.859375 770.472656 628.964844 769.3125 628.554688 C 768.152344 628.144531 766.253906 626.992188 765.09375 625.996094 C 763.136719 624.316406 762.988281 619.710938 762.988281 561.554688 L 762.988281 498.925781 L 779.292969 499.707031 C 789.808594 500.210938 796.804688 501.109375 798.988281 502.242188 C 802.113281 503.859375 806.300781 508.210938 811.414062 515.171875 C 813.410156 517.890625 813.46875 517.710938 813.535156 508.332031 C 813.574219 503.03125 813.933594 497.476562 814.332031 495.984375 L 815.058594 493.277344 L 756.574219 493.277344 C 724.40625 493.277344 697.828125 493.699219 697.507812 494.21875 M 863.386719 497.199219 L 868.03125 501.171875 L 868.378906 530.042969 C 868.566406 545.925781 868.421875 573.476562 868.054688 591.269531 L 867.382812 623.621094 L 863.296875 627.589844 C 861.046875 629.773438 859.644531 631.746094 860.179688 631.976562 C 860.710938 632.203125 881.476562 632.390625 906.316406 632.390625 C 955.976562 632.390625 956.957031 632.277344 972.28125 624.867188 C 982.007812 620.167969 985.996094 616.167969 990.300781 606.804688 C 993.496094 599.855469 994.261719 586.992188 991.859375 580.671875 C 987.472656 569.136719 976.984375 562.839844 957.503906 560.050781 C 952.425781 559.324219 951.953125 559.054688 954.496094 558.332031 C 970.132812 553.878906 981.507812 539.871094 981.367188 525.234375 C 981.269531 514.617188 977.621094 506.902344 970.429688 502.089844 C 958.40625 494.046875 957.621094 493.941406 905.714844 493.566406 L 858.742188 493.226562 Z M 1094.210938 497.039062 C 1061.292969 502.378906 1040.726562 539.890625 1049.054688 579.394531 C 1054.503906 605.230469 1074.742188 624.972656 1099.429688 628.527344 C 1130.824219 633.050781 1157.394531 613.464844 1164.757812 580.375 C 1167.351562 568.722656 1166.515625 549.351562 1162.925781 537.71875 C 1156.207031 515.972656 1138.078125 500.054688 1116.492188 496.945312 C 1106.761719 495.542969 1103.34375 495.558594 1094.210938 497.039062 M 884.761719 500.953125 C 883.796875 502.113281 883.484375 510.808594 883.710938 529.992188 L 884.035156 557.375 L 910.953125 557.183594 C 941.796875 556.960938 947.140625 555.789062 956.441406 547.214844 C 962.84375 541.316406 964.503906 536.457031 963.941406 525.285156 C 963.199219 510.59375 956.558594 503.546875 940.6875 500.613281 C 929.804688 498.601562 886.496094 498.867188 884.761719 500.953125 M 954.496094 511.796875 C 954.496094 512.046875 955.441406 512.996094 956.601562 513.90625 C 958.511719 515.402344 958.554688 515.359375 957.058594 513.449219 C 955.484375 511.445312 954.496094 510.804688 954.496094 511.796875 M 369.738281 514.957031 C 369.328125 515.617188 369.566406 516.160156 370.269531 516.160156 C 370.96875 516.160156 371.542969 515.617188 371.542969 514.957031 C 371.542969 514.292969 371.304688 513.75 371.011719 513.75 C 370.71875 513.75 370.144531 514.292969 369.738281 514.957031 M 883.433594 593.160156 C 883.433594 617.753906 883.707031 622.257812 885.324219 623.871094 C 888.035156 626.582031 941.289062 626.636719 950.175781 623.941406 C 967.199219 618.777344 976.476562 607.433594 976.359375 591.933594 C 976.292969 583.433594 972.386719 577.117188 964.027344 571.972656 C 952.882812 565.121094 947.914062 564.367188 913.84375 564.351562 L 883.433594 564.335938 Z M 1241.246094 622.851562 C 1241.304688 624.257812 1241.589844 624.542969 1241.972656 623.582031 C 1242.320312 622.710938 1242.277344 621.671875 1241.878906 621.273438 C 1241.480469 620.871094 1241.195312 621.582031 1241.246094 622.851562 M 619.132812 626.117188 C 619.585938 627.304688 620.261719 627.972656 620.628906 627.601562 C 621 627.230469 620.632812 626.261719 619.808594 625.441406 C 618.617188 624.261719 618.480469 624.402344 619.132812 626.117188 M 507.113281 689.296875 C 499.800781 690.03125 496.613281 696.507812 501.417969 700.855469 C 503.449219 702.695312 521.351562 702.847656 734.476562 702.847656 C 963.730469 702.847656 965.351562 702.832031 967.742188 700.441406 C 970.71875 697.464844 970.746094 694.625 967.84375 691.144531 L 965.617188 688.476562 L 738.738281 688.648438 C 613.957031 688.742188 509.722656 689.03125 507.113281 689.296875 " fill-opacity="1" fill-rule="evenodd"/></svg>