<svg xmlns="http://www.w3.org/2000/svg" xmlns:xlink="http://www.w3.org/1999/xlink" width="1920" zoomAndPan="magnify" viewBox="0 0 1440 809.999993" height="1080" preserveAspectRatio="xMidYMid meet" version="1.0"><path fill="#000000" d="M 636.992188 121.90625 C 619.496094 128.03125 610.960938 140.875 612.035156 159.457031 C 612.480469 167.132812 613.339844 170.382812 616.667969 176.992188 C 621.421875 186.4375 635.839844 201.734375 647.140625 209.316406 C 658.988281 217.273438 681.832031 228.175781 702.0625 235.535156 C 707.933594 237.671875 706.15625 237.714844 603.714844 238.015625 L 499.390625 238.320312 L 499.390625 336.347656 L 726.574219 336.347656 L 726.871094 376.101562 C 727.039062 397.964844 727.023438 420.089844 726.84375 425.261719 C 726.566406 433.125 726.863281 434.941406 728.636719 436.285156 C 731.195312 438.226562 735.460938 438.421875 738.609375 436.734375 C 740.839844 435.539062 740.921875 433.710938 740.921875 385.921875 L 740.921875 336.347656 L 968.105469 336.347656 L 968.105469 238.308594 L 863.183594 238.230469 C 789.476562 238.179688 759.148438 237.785156 761.25 236.914062 C 762.894531 236.230469 768.8125 234.101562 774.402344 232.183594 C 791.101562 226.445312 817.042969 212.875 827.875 204.210938 C 839.523438 194.894531 845.894531 187.160156 851.839844 175.136719 C 855.847656 167.027344 856.277344 165.230469 856.28125 156.503906 C 856.289062 145.097656 853.722656 138.363281 846.703125 131.339844 C 833.589844 118.230469 809.855469 117.910156 790.523438 130.589844 C 769.484375 144.390625 753.566406 167.417969 736.53125 208.691406 L 734.199219 214.347656 L 730.207031 204.507812 C 724.28125 189.902344 713.144531 167.863281 707.246094 159.074219 C 693.269531 138.242188 675.070312 124.648438 656.582031 121.230469 C 647.40625 119.535156 643.371094 119.675781 636.992188 121.90625 M 643.472656 134.335938 C 631.671875 136.058594 625.695312 143.570312 625.78125 156.570312 C 625.855469 167.039062 630.050781 175.519531 640.179688 185.644531 C 656.738281 202.203125 687.25 218.050781 714.820312 224.421875 L 722.039062 226.089844 L 721.289062 222.339844 C 720.078125 216.285156 712.621094 197.199219 707.316406 186.578125 C 696.160156 164.234375 679.96875 145.152344 666.292969 138.222656 C 659.605469 134.835938 650.578125 133.296875 643.472656 134.335938 M 813.859375 134.488281 C 795.632812 137.777344 778.082031 154.976562 762.441406 184.871094 C 755.59375 197.957031 745.703125 221.078125 745.703125 223.992188 C 745.703125 226.160156 753.152344 224.683594 770.210938 219.132812 C 804.09375 208.109375 828.964844 191.109375 838.378906 172.539062 C 842.804688 163.800781 843.796875 149.953125 840.429688 143.886719 C 836.214844 136.304688 825.257812 132.425781 813.859375 134.488281 M 513.738281 287.328125 L 513.738281 323.195312 L 726.574219 323.195312 L 726.574219 251.457031 L 513.738281 251.457031 Z M 740.921875 287.328125 L 740.921875 323.195312 L 953.757812 323.195312 L 953.757812 251.457031 L 740.921875 251.457031 Z M 398.355469 490.636719 C 390.894531 491.773438 389.9375 491.96875 384.007812 493.554688 C 373.628906 496.332031 356.703125 507.359375 349.730469 515.882812 C 338.503906 529.609375 333.898438 542.769531 333.898438 561.117188 C 333.898438 582.675781 340.472656 598.277344 355.613281 612.660156 C 370.507812 626.808594 386.171875 632.753906 411.125 633.734375 C 427.835938 634.386719 436.097656 633.078125 453.355469 627.046875 L 462.921875 623.703125 L 463.535156 598.6875 C 464.171875 572.59375 464.617188 570.3125 469.972656 565.5625 C 472.472656 563.351562 472.457031 563.34375 467.707031 564.007812 C 465.074219 564.378906 457.273438 564.714844 450.367188 564.761719 C 440.113281 564.832031 438.242188 565.105469 440.15625 566.269531 C 441.449219 567.054688 444.003906 569.132812 445.835938 570.890625 L 449.171875 574.085938 L 449.15625 594.203125 C 449.136719 613.558594 448.421875 618.464844 445.855469 616.878906 C 445.195312 616.472656 444.734375 617.042969 444.824219 618.148438 C 445.273438 623.625 426.382812 628.910156 410.945312 627.621094 C 392.679688 626.097656 380.199219 620.140625 368.039062 607.144531 C 355.394531 593.632812 349.992188 579.21875 349.949219 558.898438 C 349.890625 529.445312 366.628906 506.0625 393.484375 498.085938 C 405.855469 494.414062 427.644531 495.992188 440.550781 501.496094 C 445.851562 503.757812 456.933594 514.28125 458.195312 518.246094 C 459.824219 523.378906 460.585938 518.753906 459.722656 508.941406 C 458.601562 496.148438 458.324219 495.363281 454.890625 495.34375 C 453.390625 495.335938 447.140625 494.292969 441.003906 493.027344 C 427.484375 490.238281 408.101562 489.148438 398.355469 490.636719 M 1084.6875 491.304688 C 1059.640625 496.472656 1038.355469 515.898438 1030.828125 540.457031 C 1028.050781 549.519531 1027.460938 565.144531 1029.472656 576.242188 C 1031.9375 589.820312 1037.042969 599.8125 1046.894531 610.324219 C 1061.609375 626.023438 1076.792969 632.75 1099.734375 633.734375 C 1115.984375 634.433594 1127.203125 632.390625 1138.492188 626.671875 C 1163.816406 613.839844 1177.410156 593.300781 1179.253906 565.066406 C 1181.691406 527.714844 1159.757812 498.816406 1123.242188 491.273438 C 1112.082031 488.96875 1095.941406 488.980469 1084.6875 491.304688 M 118.359375 491.726562 C 116.273438 492.222656 112.238281 493.828125 109.390625 495.296875 C 97.90625 501.21875 92.839844 509.582031 92.882812 522.546875 C 92.9375 540.15625 101.078125 548.78125 134.78125 566.925781 C 158.917969 579.921875 165.625 588.09375 164.285156 602.878906 C 163.335938 613.332031 155.375 624.328125 151.519531 620.503906 C 150.4375 619.433594 150.269531 619.539062 150.8125 620.957031 C 152.628906 625.738281 134.316406 629.480469 121.148438 627.023438 C 112.730469 625.453125 100.460938 619.421875 101.023438 617.132812 C 101.246094 616.246094 101.011719 615.929688 100.511719 616.429688 C 99.175781 617.765625 92.9375 611.394531 90.949219 606.664062 C 90.007812 604.429688 88.929688 602.902344 88.558594 603.277344 C 87.421875 604.414062 90.820312 627.097656 92.179688 627.464844 C 114.6875 633.507812 131.457031 635.105469 144.125 632.40625 C 167.042969 627.523438 179.292969 614.632812 179.140625 595.566406 C 179.007812 578.71875 171.515625 569.65625 146.222656 555.738281 C 120.648438 541.667969 113.171875 536.292969 109.664062 529.460938 C 103.109375 516.703125 108.664062 502.070312 121.65625 497.882812 C 127.222656 496.085938 141.265625 495.976562 147.582031 497.675781 C 154.726562 499.601562 162.289062 505.855469 166.167969 513.039062 C 168.019531 516.46875 170.066406 519.273438 170.722656 519.273438 C 171.375 519.273438 171.640625 518.832031 171.308594 518.292969 C 170.976562 517.757812 170.609375 512.21875 170.492188 505.988281 L 170.28125 494.660156 L 165.945312 494.480469 C 163.558594 494.382812 158.402344 493.464844 154.480469 492.441406 C 147 490.484375 125.363281 490.054688 118.359375 491.726562 M 239.328125 493.148438 C 236.699219 493.679688 229.566406 493.792969 223.484375 493.402344 C 216.09375 492.921875 212.425781 493.101562 212.425781 493.941406 C 212.425781 494.632812 213.488281 495.535156 214.785156 495.949219 C 216.082031 496.359375 218.234375 498.082031 219.566406 499.777344 C 221.925781 502.773438 221.988281 504.367188 221.921875 560.382812 C 221.851562 621.335938 221.53125 625.167969 216.3125 627.457031 C 214.832031 628.105469 213.621094 629.050781 213.621094 629.550781 C 213.621094 630.050781 220.921875 630.460938 229.847656 630.460938 L 246.074219 630.460938 L 241.804688 626.4375 L 237.535156 622.410156 L 237.535156 502.292969 L 241.777344 498.050781 C 246.699219 493.128906 246.03125 491.792969 239.328125 493.148438 M 1223.386719 492.96875 L 1204.253906 493.566406 L 1210.832031 496.679688 C 1215.035156 498.667969 1219.15625 501.902344 1222.257812 505.644531 C 1233.226562 518.886719 1257.144531 548.851562 1259.863281 552.75 C 1261.464844 555.050781 1263.96875 558.234375 1265.421875 559.824219 L 1268.066406 562.714844 L 1264.464844 567 C 1262.484375 569.351562 1257.5625 575.316406 1253.53125 580.246094 C 1230.710938 608.167969 1217.28125 622.097656 1208.199219 627.28125 C 1205.710938 628.703125 1203.671875 630.234375 1203.667969 630.683594 C 1203.664062 631.136719 1210.917969 631.40625 1219.789062 631.28125 C 1228.664062 631.160156 1235.914062 630.792969 1235.898438 630.460938 C 1235.886719 630.132812 1234.273438 628.292969 1232.316406 626.375 C 1228.859375 622.980469 1228.816406 622.796875 1230.757812 619.796875 C 1235.433594 612.574219 1269.9375 570.507812 1271.738281 569.835938 C 1272.109375 569.695312 1278.328125 576.878906 1285.5625 585.789062 C 1316.621094 624.0625 1315.355469 621.992188 1310.714844 626.832031 C 1309.046875 628.574219 1307.683594 630.234375 1307.6875 630.527344 C 1307.691406 631.375 1338.839844 631.785156 1344.472656 631.011719 C 1347.402344 630.609375 1349.265625 629.804688 1348.847656 629.125 C 1348.445312 628.472656 1347.222656 628.121094 1346.132812 628.339844 C 1345.042969 628.558594 1343.421875 628.183594 1342.523438 627.507812 C 1336.367188 622.851562 1325.667969 611.882812 1319.34375 603.738281 C 1315.230469 598.445312 1309.851562 591.878906 1307.386719 589.140625 C 1304.917969 586.402344 1302.902344 583.578125 1302.902344 582.863281 C 1302.902344 582.148438 1302.199219 581.132812 1301.339844 580.605469 C 1300.480469 580.082031 1298.195312 577.496094 1296.257812 574.867188 C 1294.320312 572.238281 1290.453125 567.242188 1287.65625 563.761719 C 1284.859375 560.285156 1282.574219 556.828125 1282.574219 556.082031 C 1282.574219 553.449219 1320.675781 511.011719 1329.433594 503.886719 C 1332.628906 501.285156 1337.652344 498.167969 1340.589844 496.960938 C 1343.53125 495.75 1345.9375 494.371094 1345.941406 493.890625 C 1345.949219 492.433594 1340.195312 491.464844 1336.074219 492.230469 C 1333.941406 492.625 1327.40625 493.011719 1321.554688 493.089844 L 1310.917969 493.230469 L 1314.679688 496.746094 C 1316.75 498.683594 1318.445312 500.738281 1318.445312 501.320312 C 1318.445312 502.925781 1292.089844 534.925781 1282.753906 544.65625 L 1277.328125 550.3125 L 1273.925781 546.449219 C 1270.367188 542.414062 1263.820312 534 1248.597656 513.890625 C 1240.453125 503.136719 1237.75 497.75 1240.496094 497.75 C 1241.027344 497.75 1242.421875 497.050781 1243.59375 496.195312 C 1247.792969 493.125 1242.984375 492.355469 1223.386719 492.96875 M 513.078125 496.144531 C 515.398438 497.722656 517.605469 500.242188 517.984375 501.742188 C 518.359375 503.242188 518.5 531.292969 518.296875 564.078125 C 518.015625 609.097656 517.574219 623.804688 516.492188 624.167969 C 515.703125 624.429688 513.558594 625.820312 511.726562 627.253906 L 508.398438 629.863281 L 523.925781 630.464844 C 538.925781 631.046875 543.898438 630.3125 540.046875 628.078125 C 532.90625 623.941406 533.46875 629.570312 533.46875 562.324219 L 533.46875 501.167969 L 537.367188 497.964844 C 539.507812 496.203125 541.257812 494.40625 541.253906 493.972656 C 541.246094 493.539062 533.953125 493.203125 525.050781 493.230469 L 508.855469 493.277344 Z M 586.148438 493.898438 C 585.757812 494.285156 587.027344 495.269531 588.96875 496.085938 C 591.527344 497.160156 592.839844 498.820312 593.761719 502.144531 C 594.578125 505.082031 595.035156 527.339844 595.039062 564.308594 L 595.046875 621.894531 L 584.882812 630.417969 L 601.324219 630.4375 C 612.441406 630.457031 617.765625 630.039062 617.765625 629.15625 C 617.765625 628.4375 616.796875 627.59375 615.613281 627.285156 C 610.5625 625.964844 610.121094 623.066406 609.621094 588.226562 L 609.144531 554.960938 L 626.808594 555.347656 C 639.59375 555.628906 644.609375 556.152344 644.96875 557.234375 C 645.242188 558.054688 646.015625 558.726562 646.6875 558.726562 C 647.359375 558.726562 648.96875 560.070312 650.265625 561.714844 C 651.554688 563.359375 653.414062 564.703125 654.390625 564.703125 C 655.859375 564.703125 656.113281 562.722656 655.863281 553.273438 C 655.695312 546.984375 655.019531 541.507812 654.367188 541.105469 C 653.714844 540.699219 652.957031 541.035156 652.6875 541.84375 C 652.417969 542.65625 651.074219 544.363281 649.703125 545.640625 C 647.449219 547.742188 645.375 547.964844 628.300781 547.964844 L 609.394531 547.964844 L 609.394531 527.191406 C 609.394531 515.769531 609.726562 504.773438 610.128906 502.761719 L 610.859375 499.105469 L 627.167969 499.054688 C 636.136719 499.027344 646.679688 499.457031 650.601562 500.007812 C 656.804688 500.878906 658.238281 501.601562 661.699219 505.601562 C 663.882812 508.128906 665.984375 511.453125 666.371094 512.992188 C 668.191406 520.238281 671.277344 511.640625 671.484375 498.753906 L 671.570312 493.183594 L 629.210938 493.1875 C 605.914062 493.191406 586.535156 493.511719 586.148438 493.898438 M 697.441406 493.90625 C 696.636719 495.207031 696.070312 515.472656 696.820312 516.222656 C 697.152344 516.554688 699.277344 514.015625 701.539062 510.578125 C 707.289062 501.835938 710.707031 500.515625 729.609375 499.738281 C 738.1875 499.382812 745.78125 499.464844 746.484375 499.917969 C 747.957031 500.863281 748.566406 609.527344 747.148438 618.484375 C 746.476562 622.753906 745.523438 624.328125 742.464844 626.253906 C 740.351562 627.582031 738.601562 629.074219 738.578125 629.566406 C 738.550781 630.058594 745.796875 630.460938 754.671875 630.460938 C 764.964844 630.460938 770.816406 630.015625 770.816406 629.230469 C 770.816406 628.550781 769.875 627.664062 768.722656 627.253906 C 767.570312 626.847656 765.6875 625.703125 764.539062 624.714844 C 762.59375 623.046875 762.445312 618.476562 762.445312 560.746094 L 762.445312 498.578125 L 778.632812 499.351562 C 789.070312 499.855469 796.015625 500.746094 798.183594 501.867188 C 801.289062 503.472656 805.441406 507.796875 810.519531 514.703125 C 812.503906 517.40625 812.558594 517.222656 812.628906 507.914062 C 812.664062 502.652344 813.023438 497.136719 813.417969 495.660156 L 814.140625 492.96875 L 756.078125 492.96875 C 724.144531 492.96875 697.757812 493.390625 697.441406 493.90625 M 862.113281 496.867188 L 866.726562 500.808594 L 867.070312 529.46875 C 867.257812 545.230469 867.113281 572.582031 866.75 590.242188 L 866.082031 622.355469 L 862.023438 626.296875 C 859.792969 628.464844 858.398438 630.421875 858.929688 630.648438 C 859.460938 630.875 880.070312 631.0625 904.734375 631.0625 C 954.035156 631.0625 955.003906 630.949219 970.21875 623.59375 C 979.875 618.929688 983.835938 614.960938 988.109375 605.664062 C 991.277344 598.769531 992.039062 585.996094 989.65625 579.722656 C 985.300781 568.273438 974.886719 562.023438 955.550781 559.253906 C 950.507812 558.53125 950.039062 558.265625 952.5625 557.546875 C 968.085938 553.128906 979.378906 539.222656 979.238281 524.695312 C 979.140625 514.15625 975.519531 506.496094 968.382812 501.71875 C 956.445312 493.734375 955.664062 493.628906 904.136719 493.257812 L 857.503906 492.921875 Z M 1091.261719 496.707031 C 1058.582031 502.003906 1038.167969 539.238281 1046.4375 578.453125 C 1051.847656 604.101562 1071.9375 623.695312 1096.441406 627.226562 C 1127.609375 631.71875 1153.988281 612.277344 1161.296875 579.429688 C 1163.871094 567.863281 1163.042969 548.636719 1159.476562 537.085938 C 1152.808594 515.5 1134.8125 499.695312 1113.382812 496.613281 C 1103.722656 495.222656 1100.328125 495.234375 1091.261719 496.707031 M 883.335938 500.589844 C 882.378906 501.742188 882.066406 510.375 882.292969 529.417969 L 882.613281 556.597656 L 909.335938 556.40625 C 939.957031 556.1875 945.261719 555.023438 954.496094 546.515625 C 960.851562 540.65625 962.5 535.832031 961.941406 524.742188 C 961.203125 510.160156 954.609375 503.164062 938.851562 500.25 C 928.050781 498.253906 885.054688 498.519531 883.335938 500.589844 M 952.5625 511.355469 C 952.5625 511.601562 953.503906 512.542969 954.652344 513.449219 C 956.550781 514.933594 956.59375 514.890625 955.105469 512.996094 C 953.542969 511.003906 952.5625 510.371094 952.5625 511.355469 M 372.050781 514.488281 C 371.644531 515.148438 371.882812 515.683594 372.578125 515.683594 C 373.273438 515.683594 373.84375 515.148438 373.84375 514.488281 C 373.84375 513.832031 373.605469 513.292969 373.316406 513.292969 C 373.027344 513.292969 372.457031 513.832031 372.050781 514.488281 M 882.015625 592.117188 C 882.015625 616.53125 882.289062 621.003906 883.894531 622.605469 C 886.582031 625.296875 939.449219 625.351562 948.277344 622.675781 C 965.171875 617.550781 974.386719 606.289062 974.265625 590.902344 C 974.199219 582.464844 970.324219 576.191406 962.023438 571.089844 C 950.960938 564.289062 946.03125 563.539062 912.207031 563.523438 L 882.015625 563.507812 Z M 1237.230469 621.59375 C 1237.289062 622.988281 1237.570312 623.269531 1237.953125 622.316406 C 1238.300781 621.453125 1238.257812 620.421875 1237.859375 620.027344 C 1237.460938 619.628906 1237.179688 620.335938 1237.230469 621.59375 M 619.636719 624.835938 C 620.085938 626.015625 620.753906 626.675781 621.121094 626.308594 C 621.492188 625.941406 621.125 624.976562 620.304688 624.164062 C 619.125 622.992188 618.988281 623.132812 619.636719 624.835938 M 508.429688 687.546875 C 501.171875 688.277344 498.003906 694.707031 502.773438 699.023438 C 504.792969 700.851562 522.5625 701.003906 734.140625 701.003906 C 961.726562 701.003906 963.339844 700.984375 965.714844 698.613281 C 968.667969 695.660156 968.695312 692.839844 965.8125 689.386719 L 963.601562 686.738281 L 738.371094 686.90625 C 614.496094 687 511.019531 687.289062 508.429688 687.546875 " fill-opacity="1" fill-rule="evenodd"/></svg>