<svg xmlns="http://www.w3.org/2000/svg" xmlns:xlink="http://www.w3.org/1999/xlink" width="650" zoomAndPan="magnify" viewBox="0 0 487.5 298.499991" height="398" preserveAspectRatio="xMidYMid meet" version="1.0"><defs><g/></defs><g fill="#000000" fill-opacity="1"><g transform="translate(130.16918, 225.328032)"><g><path d="M 27.953125 0.890625 C 23.085938 0.890625 18.789062 -0.238281 15.0625 -2.5 C 11.332031 -4.757812 8.4375 -8.0625 6.375 -12.40625 C 4.3125 -16.757812 3.28125 -22.066406 3.28125 -28.328125 C 3.28125 -37.671875 5.515625 -44.875 9.984375 -49.9375 C 14.460938 -55.007812 20.675781 -57.546875 28.625 -57.546875 C 33.738281 -57.546875 37.882812 -56.703125 41.0625 -55.015625 C 44.25 -53.328125 46.695312 -50.976562 48.40625 -47.96875 C 50.125 -44.957031 51.285156 -41.46875 51.890625 -37.5 L 46.890625 -36.75 C 46.191406 -40.082031 45.144531 -43.003906 43.75 -45.515625 C 42.363281 -48.023438 40.453125 -49.988281 38.015625 -51.40625 C 35.578125 -52.820312 32.398438 -53.53125 28.484375 -53.53125 C 26.097656 -53.53125 23.722656 -53.226562 21.359375 -52.625 C 18.992188 -52.03125 16.941406 -51.085938 15.203125 -49.796875 C 13.066406 -47.660156 11.378906 -44.835938 10.140625 -41.328125 C 8.898438 -37.828125 8.28125 -33.59375 8.28125 -28.625 C 8.28125 -23.207031 9.148438 -18.582031 10.890625 -14.75 C 12.628906 -10.925781 15.050781 -8.007812 18.15625 -6 C 21.257812 -3.988281 24.820312 -2.984375 28.84375 -2.984375 C 32.125 -2.984375 35.09375 -3.566406 37.75 -4.734375 C 40.414062 -5.898438 42.59375 -7.523438 44.28125 -9.609375 C 45.96875 -11.703125 46.9375 -14.164062 47.1875 -17 C 47.1875 -18.582031 46.972656 -19.894531 46.546875 -20.9375 C 46.128906 -21.988281 45.671875 -22.515625 45.171875 -22.515625 L 31.234375 -22.515625 L 31.234375 -25.203125 L 51.734375 -25.203125 C 51.679688 -21.078125 51.71875 -17.023438 51.84375 -13.046875 C 51.96875 -9.066406 52.054688 -4.71875 52.109375 0 L 47.640625 0 L 47.640625 -12.21875 L 47.34375 -12.21875 C 46.894531 -9.988281 45.8125 -7.863281 44.09375 -5.84375 C 42.375 -3.832031 40.148438 -2.207031 37.421875 -0.96875 C 34.691406 0.269531 31.535156 0.890625 27.953125 0.890625 Z M 27.953125 0.890625 "/></g></g></g><g fill="#000000" fill-opacity="1"><g transform="translate(185.706646, 225.328032)"><g><path d="M 8.125 -51.890625 C 6.832031 -51.890625 5.960938 -52.1875 5.515625 -52.78125 C 5.066406 -53.375 4.84375 -54.21875 4.84375 -55.3125 C 4.84375 -56.300781 5.066406 -57.09375 5.515625 -57.6875 C 5.960938 -58.289062 6.832031 -58.59375 8.125 -58.59375 C 9.414062 -58.59375 10.296875 -58.289062 10.765625 -57.6875 C 11.242188 -57.09375 11.484375 -56.300781 11.484375 -55.3125 C 11.484375 -54.21875 11.242188 -53.375 10.765625 -52.78125 C 10.296875 -52.1875 9.414062 -51.890625 8.125 -51.890625 Z M 5.671875 0 C 5.710938 -3.875 5.742188 -7.625 5.765625 -11.25 C 5.796875 -14.882812 5.8125 -18.613281 5.8125 -22.4375 C 5.8125 -26.164062 5.796875 -30.078125 5.765625 -34.171875 C 5.742188 -38.273438 5.710938 -42.265625 5.671875 -46.140625 C 6.015625 -46.140625 6.394531 -46.125 6.8125 -46.09375 C 7.238281 -46.070312 7.703125 -46.0625 8.203125 -46.0625 C 8.742188 -46.0625 9.238281 -46.070312 9.6875 -46.09375 C 10.132812 -46.125 10.535156 -46.140625 10.890625 -46.140625 C 10.835938 -42.515625 10.785156 -38.578125 10.734375 -34.328125 C 10.679688 -30.078125 10.65625 -26.113281 10.65625 -22.4375 C 10.65625 -14.738281 10.734375 -7.257812 10.890625 0 Z M 5.671875 0 "/></g></g></g><g fill="#000000" fill-opacity="1"><g transform="translate(202.256068, 225.328032)"><g><path d="M 20.953125 -57.03125 C 17.617188 -57.03125 15.109375 -56.40625 13.421875 -55.15625 C 11.734375 -53.914062 10.890625 -52.253906 10.890625 -50.171875 C 10.890625 -48.929688 11.1875 -47.5625 11.78125 -46.0625 L 28.25 -46.0625 L 28.03125 -42.265625 L 12.828125 -42.34375 L 12.75 -21.984375 C 12.75 -18.265625 12.769531 -14.585938 12.8125 -10.953125 C 12.863281 -7.328125 12.914062 -3.675781 12.96875 0 L 7.75 0 C 7.851562 -3.726562 7.914062 -7.367188 7.9375 -10.921875 C 7.957031 -14.472656 7.96875 -18.140625 7.96875 -21.921875 L 7.90625 -42.34375 L 1.421875 -42.265625 L 1.421875 -46.0625 L 7.453125 -46.0625 C 6.910156 -47.601562 6.640625 -49.222656 6.640625 -50.921875 C 6.640625 -53.054688 7.222656 -54.878906 8.390625 -56.390625 C 9.554688 -57.910156 11.144531 -59.078125 13.15625 -59.890625 C 15.164062 -60.710938 17.414062 -61.125 19.90625 -61.125 C 23.132812 -61.125 26.015625 -60.628906 28.546875 -59.640625 L 28.25 -55.46875 C 27.3125 -55.914062 26.179688 -56.285156 24.859375 -56.578125 C 23.546875 -56.878906 22.242188 -57.03125 20.953125 -57.03125 Z M 20.953125 -57.03125 "/></g></g></g><g fill="#000000" fill-opacity="1"><g transform="translate(232.223939, 225.328032)"><g><path d="M 21.171875 0.75 C 18.085938 0.75 15.703125 0.175781 14.015625 -0.96875 C 12.328125 -2.113281 11.132812 -3.691406 10.4375 -5.703125 C 9.738281 -7.710938 9.328125 -10.035156 9.203125 -12.671875 C 9.078125 -15.304688 9.015625 -18.113281 9.015625 -21.09375 L 9.015625 -42.265625 L 1.421875 -42.1875 L 1.421875 -46.0625 C 2.609375 -46.0625 3.859375 -46.0625 5.171875 -46.0625 C 6.492188 -46.0625 7.753906 -46.039062 8.953125 -46 L 8.953125 -57.546875 C 9.796875 -57.597656 10.640625 -57.632812 11.484375 -57.65625 C 12.328125 -57.6875 13.144531 -57.726562 13.9375 -57.78125 L 13.9375 -46 C 16.425781 -46 19.125 -46.007812 22.03125 -46.03125 C 24.9375 -46.050781 27.929688 -46.085938 31.015625 -46.140625 C 30.960938 -45.796875 30.9375 -45.460938 30.9375 -45.140625 C 30.9375 -44.816406 30.9375 -44.476562 30.9375 -44.125 C 30.9375 -43.78125 30.921875 -43.445312 30.890625 -43.125 C 30.867188 -42.800781 30.859375 -42.46875 30.859375 -42.125 L 13.859375 -42.265625 C 13.859375 -39.734375 13.859375 -36.875 13.859375 -33.6875 C 13.859375 -30.507812 13.859375 -27.304688 13.859375 -24.078125 C 13.859375 -20.847656 13.859375 -17.816406 13.859375 -14.984375 C 13.859375 -12.941406 14.03125 -11.023438 14.375 -9.234375 C 14.726562 -7.453125 15.453125 -6 16.546875 -4.875 C 17.640625 -3.757812 19.304688 -3.203125 21.546875 -3.203125 C 23.285156 -3.203125 24.882812 -3.363281 26.34375 -3.6875 C 27.8125 -4.007812 29.171875 -4.445312 30.421875 -5 C 30.421875 -4.5 30.40625 -3.828125 30.375 -2.984375 C 30.351562 -2.140625 30.367188 -1.414062 30.421875 -0.8125 C 29.023438 -0.375 27.582031 -0.00390625 26.09375 0.296875 C 24.601562 0.597656 22.960938 0.75 21.171875 0.75 Z M 21.171875 0.75 "/></g></g></g><g fill="#000000" fill-opacity="1"><g transform="translate(265.993702, 225.328032)"><g/></g></g><g fill="#000000" fill-opacity="1"><g transform="translate(283.884963, 225.328032)"><g><path d="M 6.859375 0 C 6.910156 -1.6875 6.945312 -3.757812 6.96875 -6.21875 C 6.988281 -8.6875 7.007812 -11.285156 7.03125 -14.015625 C 7.0625 -16.742188 7.085938 -19.363281 7.109375 -21.875 C 7.140625 -24.382812 7.15625 -26.507812 7.15625 -28.25 C 7.15625 -30.632812 7.140625 -33.476562 7.109375 -36.78125 C 7.085938 -40.09375 7.0625 -43.507812 7.03125 -47.03125 C 7.007812 -50.5625 6.953125 -53.84375 6.859375 -56.875 L 28.484375 -56.875 C 35.585938 -56.875 40.925781 -55.851562 44.5 -53.8125 C 48.082031 -51.78125 49.875 -48.082031 49.875 -42.71875 C 49.875 -38.539062 48.601562 -35.421875 46.0625 -33.359375 C 43.53125 -31.296875 39.832031 -30.039062 34.96875 -29.59375 L 34.96875 -28.78125 C 40.332031 -28.375 44.378906 -27.101562 47.109375 -24.96875 C 49.847656 -22.832031 51.21875 -19.554688 51.21875 -15.140625 C 51.21875 -9.671875 49.460938 -5.78125 45.953125 -3.46875 C 42.453125 -1.15625 37 0 29.59375 0 Z M 12 -30.640625 L 28.03125 -30.640625 C 32.25 -30.640625 35.578125 -31.070312 38.015625 -31.9375 C 40.453125 -32.8125 42.203125 -34.09375 43.265625 -35.78125 C 44.335938 -37.46875 44.875 -39.484375 44.875 -41.828125 C 44.875 -46.097656 43.53125 -49.0625 40.84375 -50.71875 C 38.164062 -52.382812 33.96875 -53.21875 28.25 -53.21875 L 12 -53.21875 L 12 -32.203125 C 12 -31.953125 12 -31.703125 12 -31.453125 C 12 -31.210938 12 -30.941406 12 -30.640625 Z M 11.921875 -3.953125 L 28.921875 -3.953125 C 33.242188 -3.953125 36.671875 -4.359375 39.203125 -5.171875 C 41.742188 -5.992188 43.5625 -7.273438 44.65625 -9.015625 C 45.75 -10.753906 46.296875 -12.992188 46.296875 -15.734375 C 46.296875 -19.660156 44.851562 -22.613281 41.96875 -24.59375 C 39.082031 -26.582031 34.4375 -27.578125 28.03125 -27.578125 L 11.921875 -27.578125 L 11.921875 -5.890625 C 11.921875 -5.585938 11.921875 -5.273438 11.921875 -4.953125 C 11.921875 -4.628906 11.921875 -4.296875 11.921875 -3.953125 Z M 11.921875 -3.953125 "/></g></g></g><g fill="#000000" fill-opacity="1"><g transform="translate(338.453307, 225.328032)"><g><path d="M 23.703125 0.890625 C 17.242188 0.890625 12.148438 -1.179688 8.421875 -5.328125 C 4.691406 -9.484375 2.828125 -15.3125 2.828125 -22.8125 C 2.828125 -27.882812 3.671875 -32.242188 5.359375 -35.890625 C 7.054688 -39.546875 9.457031 -42.351562 12.5625 -44.3125 C 15.664062 -46.28125 19.378906 -47.265625 23.703125 -47.265625 C 28.078125 -47.265625 31.816406 -46.28125 34.921875 -44.3125 C 38.023438 -42.351562 40.421875 -39.546875 42.109375 -35.890625 C 43.804688 -32.242188 44.65625 -27.882812 44.65625 -22.8125 C 44.65625 -15.3125 42.789062 -9.484375 39.0625 -5.328125 C 35.332031 -1.179688 30.210938 0.890625 23.703125 0.890625 Z M 24.15625 -2.90625 C 28.675781 -2.90625 32.28125 -4.171875 34.96875 -6.703125 C 36.457031 -8.597656 37.609375 -10.898438 38.421875 -13.609375 C 39.242188 -16.316406 39.65625 -19.410156 39.65625 -22.890625 C 39.65625 -29.296875 38.226562 -34.320312 35.375 -37.96875 C 32.519531 -41.625 28.503906 -43.453125 23.328125 -43.453125 C 20.742188 -43.453125 18.382812 -42.929688 16.25 -41.890625 C 14.113281 -40.847656 12.375 -39.410156 11.03125 -37.578125 C 10.039062 -35.734375 9.257812 -33.554688 8.6875 -31.046875 C 8.113281 -28.535156 7.828125 -25.816406 7.828125 -22.890625 C 7.828125 -16.523438 9.265625 -11.601562 12.140625 -8.125 C 15.023438 -4.644531 19.03125 -2.90625 24.15625 -2.90625 Z M 24.15625 -2.90625 "/></g></g></g><g fill="#000000" fill-opacity="1"><g transform="translate(385.93971, 225.328032)"><g><path d="M 1.421875 0 C 3.304688 -2.78125 5.515625 -5.984375 8.046875 -9.609375 C 10.585938 -13.242188 13.148438 -16.898438 15.734375 -20.578125 C 16.128906 -21.171875 16.722656 -21.816406 17.515625 -22.515625 C 18.316406 -23.210938 19.113281 -23.5625 19.90625 -23.5625 L 19.90625 -24.234375 C 19.0625 -24.234375 18.273438 -24.53125 17.546875 -25.125 C 16.828125 -25.71875 16.296875 -26.335938 15.953125 -26.984375 C 13.671875 -30.367188 11.410156 -33.6875 9.171875 -36.9375 C 6.929688 -40.195312 4.867188 -43.238281 2.984375 -46.0625 L 8.421875 -46.0625 L 21.546875 -25.9375 L 22.59375 -25.9375 L 35.640625 -46.0625 L 41.15625 -46.0625 C 39.3125 -43.1875 37.28125 -40.144531 35.0625 -36.9375 C 32.851562 -33.726562 30.582031 -30.4375 28.25 -27.0625 C 27.90625 -26.414062 27.359375 -25.78125 26.609375 -25.15625 C 25.867188 -24.539062 25.078125 -24.234375 24.234375 -24.234375 L 24.234375 -23.5625 C 25.078125 -23.5625 25.894531 -23.222656 26.6875 -22.546875 C 27.476562 -21.878906 28.050781 -21.195312 28.40625 -20.5 C 30.09375 -18.164062 31.789062 -15.742188 33.5 -13.234375 C 35.21875 -10.722656 36.875 -8.320312 38.46875 -6.03125 C 40.0625 -3.75 41.476562 -1.738281 42.71875 0 L 37.125 0 L 22.59375 -21.6875 L 21.546875 -21.6875 L 6.9375 0 Z M 1.421875 0 "/></g></g></g><g fill="#cb6ce6" fill-opacity="1"><g transform="translate(47.210306, 159.848133)"><g><path d="M 140.1875 -105.640625 C 140.1875 -109.273438 138.53125 -112.703125 135.21875 -115.921875 C 130.4375 -120.484375 123.847656 -122.765625 115.453125 -122.765625 C 108.085938 -122.765625 99.941406 -121.15625 91.015625 -117.9375 C 86.347656 -116.28125 82.304688 -114 78.890625 -111.09375 C 73.597656 -106.53125 70.953125 -101.96875 70.953125 -97.40625 C 70.953125 -91.28125 74.84375 -85.78125 82.625 -80.90625 C 85.53125 -79.144531 91.363281 -76.265625 100.125 -72.265625 C 108.882812 -68.273438 115.289062 -65.035156 119.34375 -62.546875 C 125.457031 -58.816406 129.679688 -54.820312 132.015625 -50.5625 C 134.347656 -46.3125 135.515625 -42.375 135.515625 -38.75 C 135.515625 -33.5625 133.804688 -28.269531 130.390625 -22.875 C 124.367188 -13.226562 115.550781 -4.929688 103.9375 2.015625 C 90.550781 10.109375 74.421875 14.15625 55.546875 14.15625 C 37.390625 14.15625 22.972656 9.539062 12.296875 0.3125 C 3.992188 -6.738281 -0.15625 -15.816406 -0.15625 -26.921875 C -0.15625 -33.972656 2.410156 -41.75 7.546875 -50.25 C 12.679688 -58.757812 18.984375 -64.78125 26.453125 -68.3125 C 28.003906 -68.925781 29.171875 -69.128906 29.953125 -68.921875 C 30.734375 -68.710938 30.082031 -67.726562 28 -65.96875 C 23.539062 -62.445312 19.960938 -58.554688 17.265625 -54.296875 C 11.460938 -45.171875 8.5625 -35.265625 8.5625 -24.578125 C 8.5625 -17.523438 10.53125 -11.351562 14.46875 -6.0625 C 21.519531 3.375 33.757812 8.710938 51.1875 9.953125 C 53.15625 10.160156 56.082031 10.265625 59.96875 10.265625 C 63.863281 10.265625 69.15625 9.5625 75.84375 8.15625 C 82.539062 6.757812 89 4.457031 95.21875 1.25 C 108.601562 -5.800781 117.265625 -14.929688 121.203125 -26.140625 C 122.453125 -29.460938 123.078125 -32.675781 123.078125 -35.78125 C 123.078125 -42.832031 119.910156 -49.054688 113.578125 -54.453125 C 110.160156 -57.148438 103.1875 -60.753906 92.65625 -65.265625 C 82.125 -69.785156 75.046875 -73.238281 71.421875 -75.625 C 63.429688 -81.007812 59.4375 -87.382812 59.4375 -94.75 C 59.4375 -101.1875 63.015625 -107.460938 70.171875 -113.578125 C 80.441406 -122.296875 94.960938 -126.65625 113.734375 -126.65625 C 122.554688 -126.65625 129.738281 -125.332031 135.28125 -122.6875 C 140.832031 -120.039062 144.234375 -116.070312 145.484375 -110.78125 C 145.691406 -109.75 145.796875 -108.710938 145.796875 -107.671875 C 145.796875 -103.628906 143.925781 -100 140.1875 -96.78125 C 137.59375 -94.707031 134.117188 -93.046875 129.765625 -91.796875 C 127.898438 -91.273438 126.863281 -91.484375 126.65625 -92.421875 C 126.445312 -93.773438 127.742188 -94.601562 130.546875 -94.90625 C 135.523438 -95.53125 138.582031 -98.019531 139.71875 -102.375 C 140.03125 -103.519531 140.1875 -104.609375 140.1875 -105.640625 Z M 140.1875 -105.640625 "/></g></g></g><g fill="#cb6ce6" fill-opacity="1"><g transform="translate(187.388148, 159.848133)"><g><path d="M 30.171875 -60.515625 C 28.722656 -59.273438 27.117188 -58.65625 25.359375 -58.65625 C 23.597656 -58.65625 22.195312 -59.273438 21.15625 -60.515625 C 20.125 -61.765625 19.710938 -63.269531 19.921875 -65.03125 C 20.222656 -66.800781 21.097656 -68.304688 22.546875 -69.546875 C 24.003906 -70.796875 25.613281 -71.421875 27.375 -71.421875 C 29.144531 -71.421875 30.570312 -70.796875 31.65625 -69.546875 C 32.75 -68.304688 33.140625 -66.800781 32.828125 -65.03125 C 32.515625 -63.269531 31.628906 -61.765625 30.171875 -60.515625 Z M 14.9375 -3.421875 C 16.90625 -3.421875 18.976562 -4.40625 21.15625 -6.375 C 25 -10.21875 29.875 -18.050781 35.78125 -29.875 C 36.507812 -31.425781 37.238281 -31.894531 37.96875 -31.28125 C 38.175781 -31.070312 38.28125 -30.734375 38.28125 -30.265625 C 38.28125 -29.796875 37.863281 -28.648438 37.03125 -26.828125 C 36.195312 -25.015625 35.441406 -23.382812 34.765625 -21.9375 C 34.097656 -20.488281 32.800781 -18.128906 30.875 -14.859375 C 28.957031 -11.585938 27.222656 -9.070312 25.671875 -7.3125 C 21.421875 -2.4375 17.398438 0 13.609375 0 C 9.828125 0 7.101562 -1.140625 5.4375 -3.421875 C 3.78125 -5.703125 2.953125 -8.242188 2.953125 -11.046875 C 2.953125 -13.847656 3.628906 -16.910156 4.984375 -20.234375 L 14.9375 -45.59375 C 15.144531 -46.207031 15.25 -47.035156 15.25 -48.078125 C 15.25 -49.117188 14.625 -50.46875 13.375 -52.125 L 21.9375 -52.28125 C 24.320312 -52.28125 25.722656 -51.835938 26.140625 -50.953125 C 26.554688 -50.078125 26.242188 -48.703125 25.203125 -46.828125 L 12.765625 -17.734375 C 10.992188 -13.898438 10.109375 -10.632812 10.109375 -7.9375 C 10.109375 -4.925781 11.71875 -3.421875 14.9375 -3.421875 Z M 14.9375 -3.421875 "/></g></g></g></svg>